<svg xmlns="http://www.w3.org/2000/svg" xml:space="preserve" width="1500" height="451" data-id="lg_udXIPue2J2ty8hwhHy" data-version="1" viewBox="0 0 1500 451"><g data-padding="20"><g transform="translate(10 8.082)scale(.96416)"><rect width="307.212" height="85.88" x="214.639" y="-218.449" fill="none" rx="0" ry="0" transform="translate(369.68 373.68)"/><path fill="#ffdc82" d="M609.345 222.04h-12.31v-53.2h10.56q8.21 0 12.77 3.42t4.56 9.5q0 4.48-2.66 7.64-2.66 3.15-7.45 4.29v.46q6.54.83 10.22 4.52 3.69 3.69 3.69 9.31 0 6.61-5.09 10.34-5.1 3.72-14.29 3.72m-1.67-51.38h-5.48v22.8h5.4q12.01 0 12.01-11.4t-11.93-11.4m1.67 24.63h-7.15v24.93h7.15q13.91 0 13.91-12.47 0-12.46-13.91-12.46m32.22 26.75h-5.55l20.45-53.2h4.71l20.44 53.2h-5.54l-9.43-24.93h-17.25Zm15.89-49.25h-.46l-7.07 22.5h16.04Zm81.09-3.95h5.47v53.2h-5.17v-48.79h-.45l-18.4 35.26h-2.35l-20.9-31.08h-.46l1.67 44.61h-5.16l1.9-54.26h1.52l23.94 35.56h.45Zm25.23 53.2v-53.2h5.17v51.68q1.44 0 4.56-.46l12.61-1.9v3.88Zm32.68 0h-5.55l20.45-53.2h4.71l20.44 53.2h-5.55l-9.42-24.93h-17.25Zm15.88-49.25h-.45l-7.07 22.5h16.04Zm76.16 49.25h-6.84l-24.93-27.28 23.1-25.92h6.54l-25.01 23.79Zm-34.51 0h-5.17v-53.2h5.17Z"/><rect width="392.269" height="22.6" x="172.11" y="-186.809" fill="none" rx="0" ry="0" transform="translate(316.63 444.89)"/><path fill="#ffdc82" d="m499.685 275.66-4.02.02.02-.28 1.04-.14q.2-.02.24-.26h.02v-12.64h-.02q-.04-.26-.24-.28l-1.04-.1-.02-.3 4.02-.02q0 .02.02.3l-1.36.12v13.2l1.36.08q0 .02-.02.3m8.96 0-4.02.02.02-.28 1.04-.14q.18-.02.18-.28v-8.66q-.04-.16-.12-.16l-1.22-.04.02-.28q1.26-.18 1.7-.18.8 0 .9.7h.02v.42q1.64-1.12 3.14-1.18 1.46 0 2.22.58.34.26.61.81t.27 1.31v6.96l1.5.1q0 .02-.02.3l-4 .02q0-.18.02-.28l1.04-.14q.16-.02.16-.28v-6.18q0-.8-.21-1.36t-.47-.82-.64-.4q-.44-.16-.92-.16-1.2.02-2.7.94v8.26l1.5.1q0 .02-.02.3m13.94-.24q.12 0 .24-.02 1.04-.02 1.74-.65t.7-1.85q0-1.2-1.88-1.74-.78-.22-1.56-.48t-1.33-.82-.55-1.46q0-1.28.98-2.05t2.48-.77q1.12 0 2.26.4l.36.14v2.3l-.38.14-.08-1.7q-1.16-.92-1.94-.92-1.1 0-1.74.65t-.64 1.73q0 .62.55 1t1.33.6 1.56.49 1.33.88.55 1.59q0 1.32-.99 2.09t-2.81.77-3.02-.86v-2.3l.36-.14.1 1.7q.28.52 1.01.9t1.37.38m13.12 5.22-4.22.02.02-.28 1.04-.14q.18-.02.18-.28v-13.64q-.04-.16-.12-.16l-1.22-.04.02-.28q1.26-.18 1.72-.18t.66.23.24.51q1.26-.92 2.68-.92 1.36 0 2.56.84.64.46 1.03 1.44t.39 2.38q0 2.66-1.32 4-1.5 1.52-3.88 1.52-.7 0-1.46-.1v4.68l1.7.1q-.02.28-.02.3m-1.68-13.84v8.34q.58.14 1.26.14 1.96 0 3.03-1.33t1.07-3.71q0-2.72-1.08-3.66-.84-.74-1.88-.74t-2.4.96m14.2-.32v8.78l1.5.1q0 .02-.02.3l-4 .02q0-.18.02-.28l1.04-.14q.12 0 .16-.18v-8.78q-.04-.14-.12-.14l-1.2-.04.02-.28q1.08-.18 1.64-.18t.76.26.2.56m-.68-3.5q-.4 0-.62-.25t-.22-.66.23-.66.63-.25.65.25.25.68-.26.66-.66.23m9.62 3.5v1.6q1.58-2.32 3.1-2.36h.24l1.12.14-.52 1.2q-.38-.38-.98-.38-1.46.02-2.96 1.94v6.64l1.7.1q0 .02-.02.3l-4.2.02q0-.18.02-.28l1.04-.14q.16-.02.16-.28v-8.68q-.04-.14-.12-.14l-1.2-.04.02-.28q1.08-.18 1.64-.18t.76.26.2.56m11.9 0v8.78l1.5.1q0 .02-.02.3l-4 .02q0-.18.02-.28l1.04-.14q.12 0 .16-.18v-8.78q-.04-.14-.12-.14l-1.2-.04.02-.28q1.08-.18 1.64-.18t.76.26.2.56m-.68-3.5q-.4 0-.62-.25t-.22-.66.23-.66.63-.25.65.25.25.68-.26.66-.66.23m11.12 12.68-4.02.02.02-.28 1.04-.14q.18-.02.18-.28v-8.66q-.04-.16-.12-.16l-1.22-.04.02-.28q1.26-.18 1.7-.18.8 0 .9.7h.02v.42q1.64-1.12 3.14-1.18 1.46 0 2.22.58.34.26.61.81t.27 1.31v6.96l1.5.1q0 .02-.02.3l-4 .02q0-.18.02-.28l1.04-.14q.16-.02.16-.28v-6.18q0-.8-.21-1.36t-.47-.82-.64-.4q-.44-.16-.92-.16-1.2.02-2.7.94v8.26l1.5.1q0 .02-.02.3m11.12 2.06q0-1.88 2.28-3.22-.98-.54-.98-1.37t.8-1.29q-1.56-.7-1.56-2.96 0-1.54 1.16-2.42t2.96-.88q.84 0 1.6.2l3.34-.2-.04.76-2.38-.14q1.3.84 1.3 2.54t-1.1 2.6-2.84.9q-1.16 0-1.9-.2-.34.38-.34.88 0 .9.72 1.3.78.46 2.76.8.46.08.67.13t.61.13.6.15.51.2.47.25.36.3.3.4q.22.52.22 1.21t-.42 1.31-1.16.94q-1.44.62-3.3.62-2.46 0-3.55-.87t-1.09-2.07m2.6-3.06q-1.3 1.42-1.3 2.78t.79 2.11 2.41.75 2.67-.62 1.05-1.98q0-1.08-.67-1.58t-1.89-.74q-2.46-.46-3.06-.72m2-8.82q-1.24 0-2 .77t-.76 2.31.58 2.3 1.89.76 2.06-.87.75-2.35q0-2.92-2.52-2.92m26.1-4.16 3.9-.02q0 .02.02.3l-1.14.1-4.28 8.88v4.34l1.46.08q0 .02-.02.3l-4 .02q0-.18.02-.28l1.04-.14q.2-.02.24-.26v-4.06l-4.5-8.78q-.08-.06-.16-.1l-.84-.08q-.02-.12-.02-.3l4.04-.02q0 .02.02.3l-1.64.14 4.14 8.5 3.74-8.2q0-.24-.18-.26l-1.82-.16q-.02-.12-.02-.3m12.61 14.06q-2.09 0-3.38-1.2t-1.29-3.67 1.37-3.88 3.45-1.41 3.38 1.2 1.3 3.67-1.37 3.88-3.46 1.41m.13-9.8q-1.5 0-2.5 1.3t-1 3.53.95 3.42 2.45 1.19 2.5-1.3 1-3.52-.95-3.42-2.45-1.2m10.68.14-1.04-.1-.02-.3 2.7-.02v6.96q0 .78.22 1.35t.49.83.63.4q.56.2.94.16 1.22-.02 2.78-1.26v-7.74q-.08-.24-.34-.28l-1.04-.1q-.02-.12-.02-.3l2.7-.02v9.08q.04.5.32.5l1.2.06-.02.3q-.96.16-2 .16-.24-.02-.52-.27t-.28-.63v-.36q-1.82 1.22-3.44 1.22-.68 0-1.6-.34-.6-.22-.96-.83t-.36-1.53v-6.64q0-.1-.11-.19t-.23-.11m17.16.4v1.6q1.58-2.32 3.1-2.36h.24l1.12.14-.52 1.2q-.38-.38-.98-.38-1.46.02-2.96 1.94v6.64l1.7.1q0 .02-.02.3l-4.2.02q0-.18.02-.28l1.04-.14q.16-.02.16-.28v-8.68q-.04-.14-.12-.14l-1.2-.04.02-.28q1.08-.18 1.64-.18t.76.26.2.56m18.86-4.4-1.06-.12.02-.3h8.56l-.02.06.26 2.82-.4.16-.32-2.64h-5.44v6.46h4.78q.1.02.18-.05t.08-.19l.08-1.38.32-.04v3.42q-.02 0-.3.02l-.08-1.38h-5.06v6.34h5.98l.38-3.2.38.1-.3 3.5h-5.08l-4.02.02.02-.28 1.04-.14q.2-.02.24-.26v-12.66q-.04-.24-.24-.26m20.1 3.6 3.68-.02q0 .02.02.3l-1.6.18-3.84 9.52h-1.2l-3.48-9.36q-.12-.18-.3-.22l-1.04-.1-.02-.3 4.22-.02q0 .02.02.3l-1.48.1 3.14 9.18 3.28-8.86q.06-.1-.07-.19t-.27-.11l-1.04-.1Zm8.9 5.38q0 4.32 3.36 4.32.88 0 1.88-.19t1.28-.35l.14.2q-.46.3-1.51.5t-1.92.2-1.56-.18-1.41-.64-1.14-1.44-.42-2.4q0-2.64 1.36-4.04 1.42-1.46 3.3-1.46t2.87 1.04.99 2.92q0 .4-.06.86h-7.14q-.02.22-.02.66m6.04-1.66q0-1.5-.66-2.45t-1.8-.95q-1.48 0-2.5 1.3-.82 1.02-1.02 2.72h5.96q.02-.22.02-.62m8.32-2.92v1.6q1.58-2.32 3.1-2.36h.24l1.12.14-.52 1.2q-.38-.38-.98-.38-1.46.02-2.96 1.94v6.64l1.7.1q0 .02-.02.3l-4.2.02q0-.18.02-.28l1.04-.14q.16-.02.16-.28v-8.68q-.04-.14-.12-.14l-1.2-.04.02-.28q1.08-.18 1.64-.18t.76.26.2.56m15.7 14.16-4.22.02-.04-.28 1.86-.24q.14-.02.18-.28l.66-4.2h-.66l-3.34-9.3-.02-.02q-.1-.24-.32-.28l-.9-.08q-.02-.12-.02-.3l4.2-.02q0 .02.02.3l-1.56.12 2.96 9.06 3.72-8.8q.06-.12-.07-.2t-.27-.1l-.88-.06q-.02-.12-.02-.3l3.66-.02q0 .02.02.3l-1.78.18-4.2 9.52-.76 4.58 1.74.1q.04.28.04.3m17.32-19.16v13.14q0 .62.32.62l1.2.06-.02.3q-.96.16-2 .16-.22-.02-.47-.22t-.29-.52q-1.14.72-2.64.72-1.46 0-2.7-.82-.7-.46-1.13-1.45t-.43-2.41q0-2.62 1.34-4 1.42-1.48 3.24-1.48 1.12 0 2.28.58v-4.78q0-.22-.12-.22l-1.22-.04.02-.28q1.26-.18 1.73-.18t.68.26.21.56m-3.64 13.9q1.22 0 2.34-.54v-8.36q-.88-.54-1.74-.54-1.72 0-2.77 1.32t-1.05 3.78q0 4.34 3.22 4.34m16.18-.47h-.06q-1.8.84-3.5.84-2.66 0-2.82-2.1-.02-.14-.02-.26 0-1.54 2.02-2.06 1.2-.26 4.32-.62v-1.76q0-.84-.2-1.44t-.44-.89-.62-.45q-.48-.2-1.07-.2t-1.35.3q-1.1.46-1.96 1.16l-.08 1.56-.38.1v-2.42l.2-.08q1.56-.68 2.38-.82t1.2-.15.73.01.91.18.97.45.71.87.3 1.38v6.12q0 .62.32.62l1.22.06-.02.3q-1.12.16-2 .16-.24-.02-.5-.25t-.26-.61m-3.2.52q1.48 0 3.14-1.04v-3.3q-3 .1-3.77.35t-1.06.78-.29 1.05v.2q.06 1.04.62 1.5t1.36.46m17.22 5.21-4.22.02-.04-.28 1.86-.24q.14-.02.18-.28l.66-4.2h-.66l-3.34-9.3-.02-.02q-.1-.24-.32-.28l-.9-.08q-.02-.12-.02-.3l4.2-.02q0 .02.02.3l-1.56.12 2.96 9.06 3.72-8.8q.06-.12-.07-.2t-.27-.1l-.88-.06q-.02-.12-.02-.3l3.66-.02q0 .02.02.3l-1.78.18-4.2 9.52-.76 4.58 1.74.1q.04.28.04.3m18.88-18.56-1.06-.12.02-.3h2.64l4.78 10.14 4.7-10.14h2.64q0 .04.02.14t0 .16l-1.06.12q-.2.02-.24.26v12.94l1.48.08q0 .02-.02.3l-4.02.02.02-.28 1.04-.14q.2-.02.24-.24v-12.64l-4.56 9.86-.4.8h-.46l-5.06-10.68v12.88l2.28.12q0 .02-.02.3l-4.02.02.02-.28 1.04-.14q.2-.02.24-.26v-12.66q-.04-.24-.24-.26m23.01 13.66q-2.09 0-3.38-1.2t-1.29-3.67 1.37-3.88 3.45-1.41 3.38 1.2 1.3 3.67-1.37 3.88-3.46 1.41m.13-9.8q-1.5 0-2.5 1.3t-1 3.53.95 3.42 2.45 1.19 2.5-1.3 1-3.52-.95-3.42-2.45-1.2m14.64.1q-1.2.02-2.6.88v8.34l1.5.1q0 .02-.02.3l-4 .02q0-.18.02-.28l1.04-.14q.12 0 .16-.18v-8.78q-.04-.14-.12-.14l-1.2-.04.02-.28q1.08-.18 1.64-.18t.76.26.2.56v.24q1.66-1.04 3.04-1.12 1.9 0 2.58 1.08 1.74-1 3.28-1.08 1.4 0 2.12.58.34.26.59.81t.25 1.31v6.96l1.5.1q0 .02-.02.3l-4 .02q0-.18.02-.28l1.04-.14q.12 0 .16-.18v-6.28q0-.8-.2-1.37t-.44-.83-.6-.4q-.4-.16-.86-.16-1.24.02-2.7.94.26.56.26 1.32v6.96l1.5.1q0 .02-.02.3l-4.02.02.02-.28 1.04-.14q.14-.02.18-.2v-6.28q0-.98-.26-1.61t-.7-.83q-.6-.3-1.16-.3m16.98 5.02q0 4.32 3.36 4.32.88 0 1.88-.19t1.28-.35l.14.2q-.46.3-1.51.5t-1.92.2-1.56-.18-1.41-.64-1.14-1.44-.42-2.4q0-2.64 1.36-4.04 1.42-1.46 3.3-1.46t2.87 1.04.99 2.92q0 .4-.06.86h-7.14q-.02.22-.02.66m6.04-1.66q0-1.5-.66-2.45t-1.8-.95q-1.48 0-2.5 1.3-.82 1.02-1.02 2.72h5.96q.02-.22.02-.62m9.82 6.26-4.02.02.02-.28 1.04-.14q.18-.02.18-.28v-8.66q-.04-.16-.12-.16l-1.22-.04.02-.28q1.26-.18 1.7-.18.8 0 .9.7h.02v.42q1.64-1.12 3.14-1.18 1.46 0 2.22.58.34.26.61.81t.27 1.31v6.96l1.5.1q0 .02-.02.3l-4 .02q0-.18.02-.28l1.04-.14q.16-.02.16-.28v-6.18q0-.8-.21-1.36t-.47-.82-.64-.4q-.44-.16-.92-.16-1.2.02-2.7.94v8.26l1.5.1q0 .02-.02.3m15.66-.38.78-.04.06.2q-.02 0-.28.06-.6.14-1.34.14-.68-.04-1.24-.23t-1.04-.8-.48-1.57v-7.02h-1.02l.16-.16.88-.18.16-1.92 1.12-.1v2h2.42v.36h-2.42v6.68q0 1.52.64 2.05t1.6.53m8.1.14q.12 0 .24-.02 1.04-.02 1.74-.65t.7-1.85q0-1.2-1.88-1.74-.78-.22-1.56-.48t-1.33-.82-.55-1.46q0-1.28.98-2.05t2.48-.77q1.12 0 2.26.4l.36.14v2.3l-.38.14-.08-1.7q-1.16-.92-1.94-.92-1.1 0-1.74.65t-.64 1.73q0 .62.55 1t1.33.6 1.56.49 1.33.88.55 1.59q0 1.32-.99 2.09t-2.81.77-3.02-.86v-2.3l.36-.14.1 1.7q.28.52 1.01.9t1.37.38"/><path fill="#ffdc82" stroke="#ffdc82" stroke-miterlimit="10" stroke-width="4.04" d="m807.797 389.262-6.343 61.792 6.343-61.792 6.343-61.793Zm78.275-10.97 23.09 57.651-23.09-57.65-23.088-57.65Zm64.216-46.096 47.248 40.32-47.248-40.32-47.248-40.32Zm35.43-70.64 60.56 13.757-60.56-13.756L925.16 247.8Zm-1.454-79.042 60.015-15.978-60.015 15.978-60.014 15.978Zm-38.016-69.286 45.713-42.036-45.713 42.036-45.713 42.036Zm-65.872-43.693 20.947-58.479-20.947 58.48-20.948 58.478Zm-78.619-8.08L793.152-.054l17.23 123.018Z"/></g><path fill="transparent" stroke="transparent" d="M471 0h558v451H471z"/></g></svg>